<svg width="20" height="20" viewBox="0 0 20 20" fill="none" xmlns="http://www.w3.org/2000/svg">
<path d="M13.75 0C17.2013 0 20 2.79875 20 6.25V13.75C20 17.2013 17.2013 20 13.75 20H6.25C2.79875 20 0 17.2013 0 13.75V6.25C0 2.79875 2.79875 0 6.25 0H13.75ZM6.25 1.875C3.8375 1.875 1.875 3.8375 1.875 6.25V13.75C1.875 16.1625 3.8375 18.125 6.25 18.125H13.75C16.1625 18.125 18.125 16.1625 18.125 13.75V6.25C18.125 3.8375 16.1625 1.875 13.75 1.875H6.25ZM10 5.2002C12.6507 5.2002 14.7997 7.34929 14.7998 10C14.7998 12.6508 12.6508 14.7998 10 14.7998C7.34929 14.7997 5.2002 12.6507 5.2002 10C5.2003 7.34935 7.34935 5.2003 10 5.2002ZM10 7C8.34655 7.00011 7.00011 8.34535 7 10C7 11.6535 8.34649 12.9999 10 13C11.6536 13 13 11.6536 13 10C12.9999 8.34529 11.6535 7 10 7ZM15.3994 4C15.7307 4 15.9998 4.26842 16 4.59961C16 4.93098 15.7308 5.2002 15.3994 5.2002C15.0682 5.19998 14.7998 4.93085 14.7998 4.59961C14.8 4.26855 15.0684 4.00021 15.3994 4Z" fill="url(#paint0_linear_610_1265)"/>
<defs>
<linearGradient id="paint0_linear_610_1265" x1="2.92912" y1="17.0709" x2="17.0709" y2="2.92912" gradientUnits="userSpaceOnUse">
<stop stop-color="#FFC107"/>
<stop offset="0.507" stop-color="#F44336"/>
<stop offset="0.99" stop-color="#9C27B0"/>
</linearGradient>
</defs>
</svg>
