<svg width="13" height="13" viewBox="0 0 13 13" fill="none" xmlns="http://www.w3.org/2000/svg">
<path d="M5.5642 0.557433C5.93102 -0.185813 6.99086 -0.185812 7.35767 0.557434L8.57941 3.03294C8.72507 3.32808 9.00664 3.53265 9.33235 3.57998L12.0642 3.97694C12.8844 4.09613 13.212 5.1041 12.6184 5.68264L10.6416 7.60955C10.4059 7.83929 10.2984 8.17029 10.354 8.49468L10.8207 11.2155C10.9608 12.0324 10.1034 12.6554 9.36975 12.2697L6.92628 10.9851C6.63495 10.8319 6.28692 10.8319 5.9956 10.9851L3.55213 12.2697C2.8185 12.6554 1.96107 12.0324 2.10118 11.2155L2.56784 8.49468C2.62348 8.17029 2.51593 7.83929 2.28024 7.60955L0.303434 5.68264C-0.290083 5.1041 0.037428 4.09613 0.857648 3.97694L3.58953 3.57998C3.91524 3.53265 4.19681 3.32808 4.34247 3.03294L5.5642 0.557433Z" fill="#BFBFBF"/>
</svg>
